<svg width="174" height="32" viewBox="0 0 174 32" fill="none" xmlns="http://www.w3.org/2000/svg">
<path d="M100.677 3.93557V11.0959H96.4953C97.1159 9.6993 97.4242 7.4599 97.4851 3.93557H100.677ZM103.517 1.33277H94.7935V3.50546C94.7935 7.90708 94.3765 10.257 93.4445 11.0959H92.3597V16.2573H95.2003V13.6983H102.275V16.2573H105.115V11.0959H103.517V1.33277Z" fill="white"/>
<path d="M109.017 8.45384H113.139V5.97785H109.017V3.93509H114.628V1.33228H106.177V13.6982H114.846V11.0954H109.017V8.45384Z" fill="white"/>
<path d="M118.124 3.73858C118.052 9.07956 117.509 11.2588 116.248 11.2588C115.936 11.2588 115.818 11.2313 115.805 11.2282L115.564 11.1681V13.6394L115.691 13.686C116.039 13.8147 116.41 13.8799 116.797 13.8799H116.797C119.629 13.8198 120.698 11.2123 120.852 3.93522H123.917V13.6984H126.757V1.33202H118.144L118.124 3.73858Z" fill="white"/>
<path d="M137.934 7.51537C137.934 9.68457 136.397 11.2588 134.279 11.2588C132.16 11.2588 130.623 9.68457 130.623 7.51537C130.623 5.34617 132.16 3.77191 134.279 3.77191C136.363 3.77191 137.934 5.38107 137.934 7.51537ZM134.26 1.11442C132.531 1.07874 130.827 1.77103 129.578 3.01291C128.347 4.23771 127.684 5.83795 127.71 7.51227C127.684 9.19279 128.347 10.793 129.578 12.0178C130.828 13.2609 132.553 13.9512 134.256 13.9159C134.3 13.9171 134.343 13.9175 134.387 13.9175C136.083 13.9175 137.75 13.2229 138.979 12.0004C140.21 10.7752 140.873 9.18154 140.847 7.51847C140.873 5.8492 140.21 4.25555 138.979 3.03036C137.72 1.77763 136.009 1.07912 134.26 1.11442Z" fill="white"/>
<path d="M144.912 8.58066H147.514C148.461 8.58066 149.027 9.0709 149.027 9.89235C149.027 10.7262 148.475 11.204 147.514 11.204H144.912V8.58066ZM146.407 6.1772H144.912V3.82611H146.407C147.288 3.82611 147.774 4.24032 147.774 4.99273C147.774 5.74554 147.276 6.1772 146.407 6.1772ZM149.852 6.95367C150.346 6.39285 150.596 5.69201 150.596 4.86552C150.596 2.8181 148.918 1.33189 146.606 1.33189H142.163V13.6982H147.696C150.131 13.6982 151.831 12.1705 151.831 9.9831C151.831 8.59075 151.131 7.52496 149.852 6.95367Z" fill="white"/>
<path d="M159.012 9.73411H156.388L157.7 6.41107L159.012 9.73411ZM157.173 1.11431L151.646 13.6982H154.704L155.377 12.1376H160.024L160.695 13.6982H163.754L158.245 1.11431H157.173Z" fill="white"/>
<path d="M169.502 3.88079H171.159V7.1759H169.502C168.384 7.1759 167.662 6.53286 167.662 5.53726C167.662 4.53081 168.384 3.88079 169.502 3.88079ZM169.574 1.33228C166.744 1.33228 164.768 3.0543 164.768 5.51942C164.768 7.11152 165.649 8.46858 167.138 9.19229L163.99 13.6982H167.097L169.893 9.72402H171.159V13.6982H174V1.33228H169.574Z" fill="white"/>
<path d="M97.7158 23.2877H95.5578V19.7234H97.7158C98.8622 19.7234 99.603 20.4149 99.603 21.485C99.603 22.5969 98.8801 23.2877 97.7158 23.2877ZM97.7158 16.8604H92.36V30.9771H95.5578V26.1302H97.7158C100.698 26.1302 102.863 24.1766 102.863 21.485C102.863 18.762 100.746 16.8604 97.7158 16.8604Z" fill="white"/>
<path d="M115.233 23.9184C115.233 26.4215 113.459 28.2385 111.015 28.2385C108.57 28.2385 106.796 26.4215 106.796 23.9184C106.796 21.4148 108.57 19.5982 111.015 19.5982C113.42 19.5982 115.233 21.4552 115.233 23.9184ZM110.994 16.6102C109.027 16.5699 107.073 17.3596 105.648 18.7775C104.242 20.1765 103.485 22.0032 103.515 23.9153C103.485 25.8335 104.242 27.6603 105.648 29.0592C107.075 30.4779 109.03 31.268 110.99 31.2265C111.04 31.2276 111.089 31.228 111.139 31.228C113.075 31.228 114.978 30.4353 116.381 29.039C117.787 27.6409 118.544 25.8211 118.514 23.9215C118.544 22.0156 117.787 20.1962 116.381 18.7977C114.943 17.3669 112.972 16.568 110.994 16.6102Z" fill="white"/>
<path d="M126.812 19.5982C128.4 19.5982 129.633 20.3242 130.582 21.8174L130.691 21.9892L133.124 20.2723L133.037 20.1191C131.759 17.8897 129.491 16.6106 126.814 16.6103C124.817 16.5668 122.851 17.3631 121.419 18.788C120.016 20.1834 119.261 22.0063 119.291 23.9141C119.251 25.8289 119.996 27.651 121.389 29.0449C122.781 30.4376 124.689 31.228 126.641 31.228C126.691 31.228 126.741 31.2276 126.791 31.2265C129.485 31.2265 131.821 29.9136 133.038 27.715L133.122 27.5629L130.691 25.8479L130.582 26.0193C129.633 27.5125 128.4 28.2385 126.812 28.2385C124.355 28.2385 122.572 26.4304 122.572 23.9393C122.572 21.4238 124.355 19.5982 126.812 19.5982Z" fill="white"/>
<path d="M141.276 19.5982C142.864 19.5982 144.097 20.3242 145.046 21.8174L145.155 21.9892L147.589 20.2723L147.501 20.1191C146.224 17.8897 143.955 16.6106 141.278 16.6103C139.288 16.5668 137.316 17.3631 135.883 18.788C134.481 20.1834 133.725 22.0063 133.756 23.9141C133.715 25.8289 134.46 27.651 135.854 29.0449C137.245 30.4376 139.153 31.228 141.106 31.228C141.155 31.228 141.205 31.2276 141.255 31.2265C143.95 31.2265 146.285 29.9136 147.503 27.715L147.586 27.5629L145.155 25.8479L145.046 26.0193C144.097 27.5125 142.864 28.2385 141.276 28.2385C138.82 28.2385 137.037 26.4304 137.037 23.9393C137.037 21.4238 138.82 19.5982 141.276 19.5982Z" fill="white"/>
<path d="M152.313 24.9839V16.8597H149.115V31.2266H150.31L158.086 22.7724V30.9768H161.284V16.6103H160.068L152.313 24.9839Z" fill="white"/>
<path d="M168.873 19.7229H170.802V23.5575H168.873C167.575 23.5575 166.736 22.809 166.736 21.6509C166.736 20.4978 167.595 19.7229 168.873 19.7229ZM168.957 16.8595C165.73 16.8595 163.476 18.8212 163.476 21.63C163.476 23.4547 164.492 25.0081 166.207 25.8291L162.611 30.9766H166.102L169.307 26.421H170.802V30.9766H174V16.8595H168.957Z" fill="white"/>
<path d="M71.2237 1.33261H60.6364L64.8712 5.56746H71.2237C77.0615 5.56746 81.811 10.317 81.811 16.1548C81.811 21.9926 77.0615 26.7417 71.2237 26.7417H64.8712V24.6245V22.5069V18.272V16.1548V14.0372H71.2237C72.3911 14.0372 73.3413 14.987 73.3413 16.1548C73.3413 17.3222 72.3911 18.272 71.2237 18.272H66.9888L71.2237 22.5069C74.7263 22.5069 77.5761 19.6574 77.5761 16.1548C77.5761 12.6522 74.7263 9.80231 71.2237 9.80231H64.8712H60.6364V14.0372V18.272V22.5069V26.7417V30.9766H64.8712H71.2237C79.3967 30.9766 86.0458 24.3274 86.0458 16.1548C86.0458 7.98178 79.3967 1.33261 71.2237 1.33261Z" fill="white"/>
<path d="M2.54968 4.26789C2.72925 4.16627 2.86965 4.02393 2.97126 3.84087C3.07326 3.65781 3.12368 3.44993 3.12368 3.21683C3.12368 2.98762 3.07326 2.78129 2.97126 2.59861C2.86965 2.41555 2.72925 2.27205 2.54968 2.1685C2.3701 2.06533 2.16959 2.01336 1.94736 2.01336C1.72163 2.01336 1.52034 2.06417 1.34271 2.16578C1.16508 2.26778 1.02546 2.40973 0.92384 2.59318C0.821838 2.77586 0.77103 2.98374 0.77103 3.21683C0.77103 3.44993 0.821838 3.65781 0.92384 3.84087C1.02546 4.02393 1.16508 4.16627 1.34271 4.26789C1.52034 4.3695 1.72163 4.4207 1.94736 4.4207C2.16959 4.4207 2.3701 4.3695 2.54968 4.26789ZM1.94231 5.11377C1.58705 5.11377 1.26126 5.03038 0.965339 4.86439C0.669028 4.69761 0.434383 4.46956 0.26063 4.17907C0.0864888 3.88896 0 3.56822 0 3.21683C0 2.86584 0.0864888 2.54509 0.26063 2.2546C0.434383 1.96449 0.669028 1.73605 0.965339 1.56967C1.26126 1.40328 1.58705 1.3199 1.94231 1.3199C2.29719 1.3199 2.62337 1.40328 2.92162 1.56967C3.21948 1.73605 3.45606 1.96449 3.63176 2.2546C3.80745 2.54509 3.89549 2.86584 3.89549 3.21683C3.89549 3.56822 3.80745 3.88896 3.63176 4.17907C3.45606 4.46956 3.21948 4.69761 2.92162 4.86439C2.62337 5.03038 2.29719 5.11377 1.94231 5.11377Z" fill="white"/>
<path d="M6.00957 4.40344C6.17634 4.40344 6.30588 4.36001 6.39819 4.27313C6.4905 4.18625 6.53665 4.06874 6.53665 3.92097C6.53665 3.7732 6.4905 3.65568 6.39819 3.56881C6.30588 3.48193 6.17634 3.43849 6.00957 3.43849H5.27694V4.40344H6.00957ZM4.52802 1.38642H6.96987V2.06282H5.27694V2.8226H6.04874C6.28921 2.8226 6.50252 2.86798 6.68946 2.95834C6.87601 3.0491 7.02145 3.1767 7.12501 3.34114C7.22895 3.50598 7.28014 3.69912 7.28014 3.92097C7.28014 4.14281 7.22895 4.33867 7.12501 4.50855C7.02145 4.67881 6.87601 4.81107 6.68946 4.90531C6.50252 4.99956 6.28921 5.04688 6.04874 5.04688H4.52802V1.38642Z" fill="white"/>
<path d="M12.3132 5.04672H7.89062V1.38627H8.63955V4.36994H9.84419V1.38627H10.5931V4.36994H11.7974V1.38627H12.5467V4.36994H13.0291V5.82861H12.3132V5.04672Z" fill="white"/>
<path d="M13.5839 1.38642H16.0482V2.0632H14.3332V2.80631H15.5929V3.44392H14.3332V4.37009H16.1141V5.04688H13.5839V1.38642Z" fill="white"/>
<path d="M18.1399 3.10039C18.3136 3.10039 18.4498 3.05153 18.5479 2.9534C18.6456 2.85567 18.6949 2.7269 18.6949 2.56789C18.6949 2.41275 18.6449 2.28709 18.5448 2.1909C18.4451 2.09472 18.3098 2.04663 18.1399 2.04663H17.5127V3.10039H18.1399ZM16.7634 1.38691H18.1399C18.3951 1.38691 18.6227 1.43578 18.8225 1.53351C19.0218 1.63164 19.1785 1.7701 19.2914 1.94967C19.4042 2.12885 19.4605 2.33518 19.4605 2.56789C19.4605 2.80098 19.4042 3.00693 19.2914 3.1865C19.1785 3.36568 19.0218 3.5053 18.8225 3.60498C18.6227 3.70504 18.3951 3.75468 18.1399 3.75468H17.5127V5.04736H16.7634V1.38691Z" fill="white"/>
<path d="M22.3986 4.26789C22.5782 4.16627 22.7186 4.02393 22.8202 3.84087C22.9222 3.65781 22.9726 3.44993 22.9726 3.21683C22.9726 2.98762 22.9222 2.78129 22.8202 2.59861C22.7186 2.41555 22.5782 2.27205 22.3986 2.1685C22.219 2.06533 22.0185 2.01336 21.7963 2.01336C21.5706 2.01336 21.3693 2.06417 21.1916 2.16578C21.014 2.26778 20.8744 2.40973 20.7728 2.59318C20.6708 2.77586 20.62 2.98374 20.62 3.21683C20.62 3.44993 20.6708 3.65781 20.7728 3.84087C20.8744 4.02393 21.014 4.16627 21.1916 4.26789C21.3693 4.3695 21.5706 4.4207 21.7963 4.4207C22.0185 4.4207 22.219 4.3695 22.3986 4.26789ZM21.7913 5.11377C21.436 5.11377 21.1102 5.03038 20.8143 4.86439C20.518 4.69761 20.2833 4.46956 20.1096 4.17907C19.9354 3.88896 19.8489 3.56822 19.8489 3.21683C19.8489 2.86584 19.9354 2.54509 20.1096 2.2546C20.2833 1.96449 20.518 1.73605 20.8143 1.56967C21.1102 1.40328 21.436 1.3199 21.7913 1.3199C22.1461 1.3199 22.4723 1.40328 22.7706 1.56967C23.0684 1.73605 23.305 1.96449 23.4807 2.2546C23.6564 2.54509 23.7444 2.86584 23.7444 3.21683C23.7444 3.56822 23.6564 3.88896 23.4807 4.17907C23.305 4.46956 23.0684 4.69761 22.7706 4.86439C22.4723 5.03038 22.1461 5.11377 21.7913 5.11377Z" fill="white"/>
<path d="M25.129 4.8639C24.8308 4.69751 24.5961 4.46908 24.4243 4.17897C24.2521 3.88848 24.1664 3.56773 24.1664 3.21634C24.1664 2.86535 24.2529 2.5446 24.4266 2.25411C24.6008 1.964 24.8366 1.73595 25.1344 1.56918C25.4319 1.40279 25.7604 1.3198 26.1196 1.3198C26.4671 1.3198 26.7828 1.40008 27.0655 1.56103C27.3486 1.7216 27.5712 1.94461 27.7341 2.22929L27.1683 2.62876C26.9092 2.21843 26.5594 2.01287 26.1196 2.01287C25.8938 2.01287 25.691 2.06484 25.5118 2.16839C25.3322 2.27195 25.1918 2.41506 25.0898 2.59812C24.9882 2.78119 24.9374 2.98946 24.9374 3.22216C24.9374 3.45526 24.9882 3.66198 25.0898 3.84349C25.1918 4.02461 25.3322 4.16578 25.5118 4.2674C25.691 4.3694 25.8938 4.42021 26.1196 4.42021C26.5594 4.42021 26.9092 4.21504 27.1683 3.8047L27.7341 4.20379C27.5751 4.48847 27.3529 4.71109 27.0682 4.87204C26.7835 5.033 26.4651 5.11328 26.1137 5.11328C25.755 5.11328 25.4269 5.03028 25.129 4.8639Z" fill="white"/>
<path d="M29.0965 4.8639C28.7982 4.69751 28.5636 4.46908 28.3918 4.17897C28.2196 3.88848 28.1339 3.56773 28.1339 3.21634C28.1339 2.86535 28.2203 2.5446 28.3941 2.25411C28.5682 1.964 28.804 1.73595 29.1019 1.56918C29.3994 1.40279 29.7279 1.3198 30.087 1.3198C30.4345 1.3198 30.7502 1.40008 31.033 1.56103C31.3161 1.7216 31.5387 1.94461 31.7016 2.22929L31.1357 2.62876C30.8767 2.21843 30.5268 2.01287 30.087 2.01287C29.8613 2.01287 29.6585 2.06484 29.4793 2.16839C29.2997 2.27195 29.1593 2.41506 29.0573 2.59812C28.9557 2.78119 28.9049 2.98946 28.9049 3.22216C28.9049 3.45526 28.9557 3.66198 29.0573 3.84349C29.1593 4.02461 29.2997 4.16578 29.4793 4.2674C29.6585 4.3694 29.8613 4.42021 30.087 4.42021C30.5268 4.42021 30.8767 4.21504 31.1357 3.8047L31.7016 4.20379C31.5426 4.48847 31.3204 4.71109 31.0357 4.87204C30.751 5.033 30.4326 5.11328 30.0812 5.11328C29.7225 5.11328 29.3943 5.03028 29.0965 4.8639Z" fill="white"/>
<path d="M35.4807 1.3198V5.04696H34.7314V2.77847L32.5839 5.11328H32.3396V1.3865H33.0889V3.6325L35.231 1.3198H35.4807Z" fill="white"/>
<path d="M37.3009 0.787776C37.1233 0.606654 37.0345 0.371622 37.0345 0.0834548V6.86753e-05H37.6337V0.105562C37.6337 0.238592 37.6651 0.342146 37.7283 0.416223C37.7912 0.489913 37.8796 0.527146 37.9944 0.527146C38.1092 0.527146 38.198 0.489913 38.2609 0.416223C38.3237 0.342146 38.3551 0.238592 38.3551 0.105562V6.86753e-05H38.9489V0.0834548C38.9489 0.371622 38.8605 0.606654 38.6828 0.787776C38.5048 0.968899 38.2756 1.05965 37.9944 1.05965C37.7097 1.05965 37.4786 0.968899 37.3009 0.787776ZM39.4593 1.32028V5.04706H38.7104V2.77896L36.5629 5.11377H36.3185V1.3866H37.0675V3.63299L39.2099 1.32028H39.4593Z" fill="white"/>
<path d="M41.0495 4.8639C40.7513 4.69751 40.5166 4.46908 40.3448 4.17897C40.1726 3.88848 40.0869 3.56773 40.0869 3.21634C40.0869 2.86535 40.1734 2.5446 40.3472 2.25411C40.5213 1.964 40.7571 1.73595 41.055 1.56918C41.3524 1.40279 41.6809 1.3198 42.0401 1.3198C42.3876 1.3198 42.7033 1.40008 42.986 1.56103C43.2692 1.7216 43.4918 1.94461 43.6547 2.22929L43.0888 2.62876C42.8297 2.21843 42.4799 2.01287 42.0401 2.01287C41.8144 2.01287 41.6115 2.06484 41.4323 2.16839C41.2528 2.27195 41.1124 2.41506 41.0104 2.59812C40.9088 2.78119 40.8579 2.98946 40.8579 3.22216C40.8579 3.45526 40.9088 3.66198 41.0104 3.84349C41.1124 4.02461 41.2528 4.16578 41.4323 4.2674C41.6115 4.3694 41.8144 4.42021 42.0401 4.42021C42.4799 4.42021 42.8297 4.21504 43.0888 3.8047L43.6547 4.20379C43.4957 4.48847 43.2734 4.71109 42.9888 4.87204C42.7041 5.033 42.3857 5.11328 42.0343 5.11328C41.6755 5.11328 41.3474 5.03028 41.0495 4.8639Z" fill="white"/>
<path d="M46.6122 5.04688L45.0415 3.13908V5.04688H44.2925V1.38642H45.0415V3.08362L46.44 1.38642H47.3332L45.9296 3.11115L47.5167 5.04688H46.6122Z" fill="white"/>
<path d="M49.4199 2.71749L48.9316 3.95432H49.9082L49.4199 2.71749ZM50.1692 4.56983H48.6706L48.4654 5.04688H47.6606L49.2981 1.31971H49.5475L51.1788 5.04688H50.3744L50.1692 4.56983Z" fill="white"/>
<path d="M53.593 2.04653H53.0271C52.8417 2.04653 52.6924 2.09811 52.5776 2.20166C52.4628 2.30522 52.4054 2.44213 52.4054 2.612C52.4054 2.78226 52.4628 2.9184 52.5776 3.02001C52.6924 3.12163 52.8417 3.17243 53.0271 3.17243H53.593V2.04653ZM54.3423 1.38642V5.04688H53.593V3.83215H53.1159L52.2611 5.04688H51.4564L52.3942 3.70494C52.1615 3.60488 51.9772 3.45905 51.8423 3.26668C51.7073 3.07431 51.6398 2.8544 51.6398 2.60657C51.6398 2.3665 51.6988 2.15357 51.8174 1.96896C51.9357 1.78396 52.101 1.64084 52.3139 1.53884C52.5268 1.43723 52.7719 1.38642 53.0492 1.38642H54.3423Z" fill="white"/>
<path d="M12.1276 10.9232C12.3072 10.8215 12.4476 10.6792 12.5492 10.4961C12.6512 10.3131 12.7016 10.1052 12.7016 9.87211C12.7016 9.64289 12.6512 9.43656 12.5492 9.25389C12.4476 9.07082 12.3072 8.92732 12.1276 8.82377C11.948 8.7206 11.7475 8.66863 11.5253 8.66863C11.2996 8.66863 11.0983 8.71944 10.9207 8.82105C10.743 8.92306 10.6034 9.06501 10.5018 9.24846C10.3998 9.43113 10.349 9.63901 10.349 9.87211C10.349 10.1052 10.3998 10.3131 10.5018 10.4961C10.6034 10.6792 10.743 10.8215 10.9207 10.9232C11.0983 11.0248 11.2996 11.076 11.5253 11.076C11.7475 11.076 11.948 11.0248 12.1276 10.9232ZM11.5203 11.769C11.165 11.769 10.8392 11.6857 10.5433 11.5197C10.247 11.3529 10.0123 11.1248 9.83857 10.8343C9.66443 10.5442 9.57794 10.2235 9.57794 9.87211C9.57794 9.52111 9.66443 9.20036 9.83857 8.90987C10.0123 8.61976 10.247 8.39132 10.5433 8.22494C10.8392 8.05856 11.165 7.97517 11.5203 7.97517C11.8751 7.97517 12.2013 8.05856 12.4996 8.22494C12.7974 8.39132 13.034 8.61976 13.2097 8.90987C13.3854 9.20036 13.4734 9.52111 13.4734 9.87211C13.4734 10.2235 13.3854 10.5442 13.2097 10.8343C13.034 11.1248 12.7974 11.3529 12.4996 11.5197C12.2013 11.6857 11.8751 11.769 11.5203 11.769Z" fill="white"/>
<path d="M15.5875 11.0592C15.7543 11.0592 15.8838 11.0158 15.9761 10.9289C16.0684 10.842 16.1146 10.7245 16.1146 10.5767C16.1146 10.429 16.0684 10.3114 15.9761 10.2246C15.8838 10.1377 15.7543 10.0943 15.5875 10.0943H14.8549V11.0592H15.5875ZM14.106 8.04218H16.5478V8.71858H14.8549V9.47836H15.6267C15.8671 9.47836 16.0805 9.52374 16.2674 9.61411C16.454 9.70486 16.5994 9.83246 16.7029 9.99691C16.8069 10.1617 16.8581 10.3549 16.8581 10.5767C16.8581 10.7986 16.8069 10.9944 16.7029 11.1643C16.5994 11.3346 16.454 11.4668 16.2674 11.5611C16.0805 11.6553 15.8671 11.7026 15.6267 11.7026H14.106V8.04218Z" fill="white"/>
<path d="M21.8911 11.7025H17.4685V8.04203H18.2174V11.0257H19.4221V8.04203H20.171V11.0257H21.3752V8.04203H22.1246V11.0257H22.607V12.4844H21.8911V11.7025Z" fill="white"/>
<path d="M23.1618 8.04218H25.6262V8.71897H23.9111V9.46207H25.1708V10.0997H23.9111V11.0259H25.6921V11.7026H23.1618V8.04218Z" fill="white"/>
<path d="M26.9826 11.5197C26.6844 11.3533 26.4497 11.1248 26.2779 10.8347C26.1057 10.5442 26.02 10.2235 26.02 9.87211C26.02 9.52111 26.1065 9.20036 26.2803 8.90987C26.4544 8.61976 26.6902 8.39171 26.9881 8.22494C27.2855 8.05856 27.6141 7.97556 27.9732 7.97556C28.3207 7.97556 28.6364 8.05584 28.9191 8.2168C29.2023 8.37736 29.4249 8.60037 29.5878 8.88505L29.0219 9.28453C28.7628 8.87419 28.413 8.66863 27.9732 8.66863C27.7475 8.66863 27.5446 8.7206 27.3654 8.82416C27.1859 8.92771 27.0455 9.07082 26.9435 9.25389C26.8419 9.43695 26.7911 9.64522 26.7911 9.87792C26.7911 10.111 26.8419 10.3177 26.9435 10.4992C27.0455 10.6804 27.1859 10.8215 27.3654 10.9232C27.5446 11.0252 27.7475 11.076 27.9732 11.076C28.413 11.076 28.7628 10.8708 29.0219 10.4605L29.5878 10.8596C29.4288 11.1442 29.2065 11.3669 28.9219 11.5278C28.6372 11.6888 28.3188 11.769 27.9674 11.769C27.6086 11.769 27.2805 11.686 26.9826 11.5197Z" fill="white"/>
<path d="M31.0523 8.71848H29.8814V8.04169H32.9779V8.71848H31.8016V11.7021H31.0523V8.71848Z" fill="white"/>
<path d="M35.4307 10.937C35.523 10.856 35.5695 10.7431 35.5695 10.5988C35.5695 10.4584 35.523 10.3464 35.4307 10.2634C35.3384 10.18 35.2108 10.1385 35.0479 10.1385H34.1935V11.0592H35.0479C35.2108 11.0592 35.3384 11.0185 35.4307 10.937ZM34.1935 8.68522V9.52296H34.7097C34.8609 9.52296 34.9784 9.48495 35.0618 9.40933C35.1452 9.33331 35.1867 9.23092 35.1867 9.10138C35.1867 8.97184 35.1452 8.87022 35.0618 8.79615C34.9784 8.72246 34.8609 8.68522 34.7097 8.68522H34.1935ZM36.1354 10.0636C36.2502 10.2172 36.3076 10.4045 36.3076 10.6264C36.3076 10.8335 36.2568 11.0193 36.1548 11.1841C36.0532 11.3485 35.9108 11.4761 35.7278 11.5665C35.5447 11.6573 35.3364 11.7026 35.1033 11.7026H33.4717V8.04218H34.7706C34.9924 8.04218 35.1921 8.08523 35.3698 8.1725C35.5474 8.25937 35.6851 8.3796 35.7832 8.5328C35.881 8.68639 35.9302 8.86286 35.9302 9.06259C35.9302 9.32865 35.8395 9.54856 35.6583 9.7227C35.8616 9.79639 36.0206 9.91042 36.1354 10.0636Z" fill="white"/>
<path d="M36.9177 8.04218H39.382V8.71897H37.667V9.46207H38.9267V10.0997H37.667V11.0259H39.4479V11.7026H36.9177V8.04218Z" fill="white"/>
<path d="M40.0973 8.04218H40.8466V9.44539H42.4666V8.04218H43.2159V11.7026H42.4666V10.1218H40.8466V11.7026H40.0973V8.04218Z" fill="white"/>
<path d="M44.0541 8.04218H44.8034V9.44539H46.4235V8.04218H47.1728V11.7026H46.4235V10.1218H44.8034V11.7026H44.0541V8.04218Z" fill="white"/>
<path d="M49.4203 9.37277L48.932 10.6096H49.9086L49.4203 9.37277ZM50.1696 11.2251H48.671L48.4658 11.7021H47.661L49.2985 7.97498H49.5479L51.1791 11.7021H50.3747L50.1696 11.2251Z" fill="white"/>
<path d="M53.593 8.7018H53.0271C52.8417 8.7018 52.6924 8.75338 52.5776 8.85694C52.4628 8.96049 52.4054 9.0974 52.4054 9.26727C52.4054 9.43754 52.4628 9.57367 52.5776 9.67528C52.6924 9.7769 52.8417 9.82771 53.0271 9.82771H53.593V8.7018ZM54.3423 8.04169V11.7021H53.593V10.4874H53.1159L52.2611 11.7021H51.4564L52.3942 10.3602C52.1615 10.2602 51.9772 10.1143 51.8423 9.92195C51.7073 9.72958 51.6398 9.50968 51.6398 9.26184C51.6398 9.02177 51.6988 8.80884 51.8174 8.62423C51.9357 8.43923 52.101 8.29612 52.3139 8.19411C52.5268 8.0925 52.7719 8.04169 53.0492 8.04169H54.3423Z" fill="white"/>
<path d="M17.521 17.5789C17.7006 17.4773 17.841 17.335 17.9426 17.1519C18.0446 16.9688 18.095 16.761 18.095 16.5279C18.095 16.2987 18.0446 16.0923 17.9426 15.9096C17.841 15.7266 17.7006 15.5831 17.521 15.4795C17.3414 15.3764 17.1409 15.3244 16.9187 15.3244C16.6929 15.3244 16.4917 15.3752 16.314 15.4768C16.1364 15.5788 15.9968 15.7208 15.8952 15.9042C15.7932 16.0869 15.7423 16.2948 15.7423 16.5279C15.7423 16.761 15.7932 16.9688 15.8952 17.1519C15.9968 17.335 16.1364 17.4773 16.314 17.5789C16.4917 17.6805 16.6929 17.7317 16.9187 17.7317C17.1409 17.7317 17.3414 17.6805 17.521 17.5789ZM16.9136 18.4248C16.5584 18.4248 16.2326 18.3414 15.9367 18.1754C15.6403 18.0086 15.4057 17.7806 15.2319 17.4901C15.0578 17.2 14.9713 16.8793 14.9713 16.5279C14.9713 16.1769 15.0578 15.8561 15.2319 15.5656C15.4057 15.2755 15.6403 15.0471 15.9367 14.8807C16.2326 14.7143 16.5584 14.6309 16.9136 14.6309C17.2685 14.6309 17.5947 14.7143 17.8929 14.8807C18.1908 15.0471 18.4274 15.2755 18.6031 15.5656C18.7788 15.8561 18.8668 16.1769 18.8668 16.5279C18.8668 16.8793 18.7788 17.2 18.6031 17.4901C18.4274 17.7806 18.1908 18.0086 17.8929 18.1754C17.5947 18.3414 17.2685 18.4248 16.9136 18.4248Z" fill="white"/>
<path d="M20.8756 16.4114C21.0494 16.4114 21.1855 16.3626 21.2836 16.2644C21.3813 16.1667 21.4306 16.0379 21.4306 15.8789C21.4306 15.7238 21.3806 15.5981 21.2805 15.5019C21.1808 15.4058 21.0455 15.3577 20.8756 15.3577H20.2485V16.4114H20.8756ZM19.4991 14.6979H20.8756C21.1308 14.6979 21.3585 14.7468 21.5582 14.8445C21.7576 14.9427 21.9142 15.0811 22.0271 15.2607C22.14 15.4399 22.1962 15.6462 22.1962 15.8789C22.1962 16.112 22.14 16.318 22.0271 16.4975C21.9142 16.6767 21.7576 16.8163 21.5582 16.916C21.3585 17.0161 21.1308 17.0657 20.8756 17.0657H20.2485V18.3584H19.4991V14.6979Z" fill="white"/>
<path d="M22.7951 14.6975H25.1481V15.3742H23.5444V18.3579H22.7951V14.6975Z" fill="white"/>
<path d="M26.5577 16.0285L26.0694 17.2654H27.0459L26.5577 16.0285ZM27.307 17.8809H25.8083L25.6032 18.3579H24.7984L26.4359 14.6307H26.6853L28.3165 18.3579H27.5121L27.307 17.8809Z" fill="white"/>
<path d="M28.8158 14.6975H29.5651V16.1007H31.1851V14.6975H31.9344V18.3579H31.1851V16.7771H29.5651V18.3579H28.8158V14.6975Z" fill="white"/>
<path d="M35.9136 14.6308V18.358H35.1643V16.0895L33.0168 18.4243H32.7725V14.6975H33.5218V16.9435L35.6638 14.6308H35.9136Z" fill="white"/>
<path d="M39.2428 16.7717C39.3351 16.916 39.3813 17.0843 39.3813 17.2763C39.3813 17.5059 39.3243 17.7064 39.2095 17.8782C39.0947 18.05 38.9329 18.1842 38.7239 18.2804C38.5149 18.3762 38.2697 18.4243 37.9889 18.4243C37.6631 18.4243 37.3746 18.3487 37.1229 18.197C36.8716 18.0454 36.6792 17.8383 36.5458 17.5761L37.0678 17.1987C37.3044 17.5536 37.6092 17.7312 37.9831 17.7312C38.1716 17.7312 38.3291 17.6866 38.4547 17.5982C38.5804 17.5094 38.6436 17.3892 38.6436 17.2375C38.6436 17.1045 38.5936 16.9974 38.4935 16.916C38.3938 16.8346 38.2457 16.7938 38.0498 16.7938H37.567V16.1783H37.994C38.1499 16.1783 38.2697 16.1395 38.3551 16.0616C38.44 15.984 38.4827 15.8824 38.4827 15.7567C38.4827 15.6272 38.4373 15.5229 38.3465 15.4434C38.2558 15.3639 38.1293 15.3243 37.9664 15.3243C37.6445 15.3243 37.3913 15.4833 37.2063 15.8013L36.6846 15.4294C36.8107 15.1781 36.9864 14.9822 37.2121 14.8414C37.4374 14.701 37.7019 14.6308 38.0056 14.6308C38.3787 14.6308 38.6746 14.7262 38.8934 14.9163C39.1114 15.1071 39.2203 15.3666 39.2203 15.6958C39.2203 15.8436 39.1881 15.9805 39.1234 16.1062C39.0586 16.2318 38.969 16.3412 38.8542 16.4331C39.021 16.5146 39.1505 16.6274 39.2428 16.7717Z" fill="white"/>
<path d="M41.3684 16.0285L40.8801 17.2654H41.8567L41.3684 16.0285ZM42.1177 17.8809H40.6191L40.4139 18.3579H39.6091L41.2466 14.6307H41.496L43.1272 18.3579H42.3229L42.1177 17.8809Z" fill="white"/>
<path d="M46.4289 18.3582H43.6263V14.6978H44.3757V17.6815H45.9072V14.6978H46.6566V17.6815H47.1448V19.1401H46.4289V18.3582Z" fill="white"/>
<path d="M50.8406 14.6308V18.358H50.0913V16.0895L47.9438 18.4243H47.6995V14.6975H48.4488V16.9435L50.5908 14.6308H50.8406Z" fill="white"/>
<path d="M53.593 15.3576H53.0271C52.8417 15.3576 52.6924 15.4091 52.5776 15.5127C52.4628 15.6163 52.4054 15.7532 52.4054 15.923C52.4054 16.0933 52.4628 16.2294 52.5776 16.331C52.6924 16.4327 52.8417 16.4835 53.0271 16.4835H53.593V15.3576ZM54.3423 14.6975V18.3579H53.593V17.1432H53.1159L52.2611 18.3579H51.4564L52.3942 17.016C52.1615 16.9159 51.9772 16.7701 51.8423 16.5777C51.7073 16.3853 51.6398 16.1654 51.6398 15.9176C51.6398 15.6775 51.6988 15.4646 51.8174 15.28C51.9357 15.095 52.101 14.9519 52.3139 14.8499C52.5268 14.7483 52.7719 14.6975 53.0492 14.6975H54.3423Z" fill="white"/>
</svg>
