<svg width="599" height="108" viewBox="0 0 599 108" fill="none" xmlns="http://www.w3.org/2000/svg">
<path d="M346.108 13.5302V38.1462H331.734C333.867 33.3448 334.927 25.6462 335.136 13.5302H346.108ZM355.874 4.58218H325.883V12.0515C325.883 27.1835 324.45 35.2622 321.246 38.1462H317.516V55.8902H327.282V47.0928H351.603V55.8902H361.366V38.1462H355.874V4.58218Z" fill="#274896"/>
<path d="M374.781 29.063H388.953V20.551H374.781V13.5283H394.072V4.58033H365.017V47.0923H394.821V38.1443H374.781V29.063Z" fill="#274896"/>
<path d="M406.09 12.8533C405.842 31.2147 403.974 38.7067 399.641 38.7067C398.569 38.7067 398.161 38.612 398.118 38.6013L397.288 38.3947V46.8907L397.725 47.0507C398.921 47.4933 400.196 47.7173 401.526 47.7173H401.528C411.265 47.5107 414.937 38.5467 415.466 13.5293H426.005V47.0933H435.769V4.58H406.157L406.09 12.8533Z" fill="#274896"/>
<path d="M474.192 25.8369C474.192 33.2942 468.908 38.7062 461.627 38.7062C454.344 38.7062 449.06 33.2942 449.06 25.8369C449.06 18.3796 454.344 12.9676 461.627 12.9676C468.791 12.9676 474.192 18.4996 474.192 25.8369ZM461.564 3.83157C455.62 3.7089 449.76 6.0889 445.467 10.3582C441.233 14.5689 438.955 20.0702 439.045 25.8262C438.955 31.6036 441.233 37.1049 445.467 41.3156C449.763 45.5889 455.693 47.9622 461.549 47.8409C461.699 47.8449 461.848 47.8462 461.999 47.8462C467.828 47.8462 473.56 45.4582 477.785 41.2556C482.019 37.0436 484.297 31.5649 484.207 25.8476C484.297 20.1089 482.019 14.6302 477.785 10.4182C473.456 6.11157 467.576 3.71024 461.564 3.83157Z" fill="#274896"/>
<path d="M498.183 29.5H507.128C510.384 29.5 512.328 31.1853 512.328 34.0093C512.328 36.876 510.432 38.5186 507.128 38.5186H498.183V29.5ZM503.32 21.2373H498.183V13.1546H503.32C506.351 13.1546 508.021 14.5786 508.021 17.1653C508.021 19.7533 506.308 21.2373 503.32 21.2373ZM515.164 23.9066C516.863 21.9786 517.724 19.5693 517.724 16.728C517.724 9.68931 511.955 4.57998 504.007 4.57998H488.731V47.0933H507.753C516.123 47.0933 521.968 41.8413 521.968 34.3213C521.968 29.5346 519.561 25.8706 515.164 23.9066Z" fill="#274896"/>
<path d="M546.656 33.4653H537.635L542.145 22.0413L546.656 33.4653ZM540.335 3.83198L521.332 47.0933H531.847L534.157 41.728H550.133L552.443 47.0933H562.957L544.019 3.83198H540.335Z" fill="#274896"/>
<path d="M582.716 13.3412H588.415V24.6692H582.716C578.875 24.6692 576.392 22.4585 576.392 19.0358C576.392 15.5758 578.875 13.3412 582.716 13.3412ZM582.966 4.57985C573.236 4.57985 566.442 10.4998 566.442 18.9745C566.442 24.4478 569.471 29.1132 574.592 31.6012L563.767 47.0918H574.448L584.063 33.4292H588.415V47.0918H598.18V4.57985H582.966Z" fill="#274896"/>
<path d="M335.929 80.059H328.511V67.8057H335.929C339.871 67.8057 342.417 70.183 342.417 73.8617C342.417 77.6844 339.932 80.059 335.929 80.059ZM335.929 57.963H317.517V106.494H328.511V89.831H335.929C346.183 89.831 353.625 83.115 353.625 73.8617C353.625 64.5004 346.348 57.963 335.929 57.963Z" fill="#274896"/>
<path d="M396.152 82.2276C396.152 90.833 390.053 97.0796 381.649 97.0796C373.245 97.0796 367.146 90.833 367.146 82.2276C367.146 73.621 373.245 67.3756 381.649 67.3756C389.917 67.3756 396.152 73.7596 396.152 82.2276ZM381.577 57.1036C374.817 56.965 368.098 59.6796 363.198 64.5543C358.365 69.3636 355.762 75.6436 355.866 82.217C355.762 88.8116 358.366 95.0916 363.2 99.901C368.104 104.778 374.825 107.494 381.564 107.352C381.734 107.356 381.905 107.357 382.076 107.357C388.732 107.357 395.274 104.632 400.098 99.8316C404.93 95.025 407.534 88.769 407.43 82.2383C407.534 75.6863 404.93 69.4316 400.098 64.6236C395.154 59.705 388.377 56.9583 381.577 57.1036Z" fill="#274896"/>
<path d="M435.956 67.3756C441.415 67.3756 445.654 69.8716 448.918 75.005L449.292 75.5956L457.658 69.693L457.356 69.1663C452.964 61.5023 445.167 57.105 435.963 57.1036C429.099 56.9543 422.339 59.6916 417.416 64.5903C412.595 69.3876 409.998 75.6543 410.102 82.213C409.963 88.7956 412.524 95.0596 417.315 99.8516C422.099 104.64 428.658 107.357 435.37 107.357C435.54 107.357 435.712 107.356 435.884 107.352C445.147 107.352 453.176 102.838 457.362 95.2796L457.65 94.757L449.292 88.861L448.918 89.4503C445.654 94.5836 441.415 97.0796 435.956 97.0796C427.511 97.0796 421.382 90.8636 421.382 82.2996C421.382 73.6516 427.511 67.3756 435.956 67.3756Z" fill="#274896"/>
<path d="M485.683 67.3756C491.141 67.3756 495.38 69.8716 498.644 75.005L499.019 75.5956L507.384 69.693L507.083 69.1663C502.691 61.5023 494.893 57.105 485.689 57.1036C478.848 56.9543 472.067 59.6916 467.143 64.5903C462.321 69.3876 459.724 75.6543 459.828 82.213C459.689 88.7956 462.251 95.0596 467.041 99.8516C471.825 104.64 478.384 107.357 485.096 107.357C485.267 107.357 485.439 107.356 485.611 107.352C494.873 107.352 502.903 102.838 507.088 95.2796L507.376 94.757L499.019 88.861L498.644 89.4503C495.38 94.5836 491.141 97.0796 485.683 97.0796C477.237 97.0796 471.108 90.8636 471.108 82.2996C471.108 73.6516 477.237 67.3756 485.683 67.3756Z" fill="#274896"/>
<path d="M523.625 85.8903V57.9609H512.632V107.352H516.74L543.472 78.2876V106.493H554.465V57.1036H550.286L523.625 85.8903Z" fill="#274896"/>
<path d="M580.556 67.8052H587.188V80.9879H580.556C576.092 80.9879 573.208 78.4145 573.208 74.4332C573.208 70.4692 576.161 67.8052 580.556 67.8052ZM580.843 57.9612C569.749 57.9612 562.001 64.7052 562.001 74.3612C562.001 80.6345 565.495 85.9745 571.392 88.7972L559.028 106.493H571.028L582.047 90.8319H587.188V106.493H598.181V57.9612H580.843Z" fill="#274896"/>
<path d="M244.854 4.58206H208.457L223.016 19.1407H244.854C264.924 19.1407 281.252 35.4687 281.252 55.5381C281.252 75.6074 264.924 91.9341 244.854 91.9341H223.016V84.6554V77.3754V62.8167V55.5381V48.2581H244.854C248.868 48.2581 252.134 51.5234 252.134 55.5381C252.134 59.5514 248.868 62.8167 244.854 62.8167H230.296L244.854 77.3754C256.896 77.3754 266.693 67.5794 266.693 55.5381C266.693 43.4967 256.896 33.6994 244.854 33.6994H223.016H208.457V48.2581V62.8167V77.3754V91.9341V106.493H223.016H244.854C272.952 106.493 295.81 83.6341 295.81 55.5381C295.81 27.4407 272.952 4.58206 244.854 4.58206Z" fill="#274896"/>
<path d="M8.76533 14.6721C9.38267 14.3228 9.86533 13.8335 10.2147 13.2041C10.5653 12.5748 10.7387 11.8601 10.7387 11.0588C10.7387 10.2708 10.5653 9.56146 10.2147 8.93346C9.86533 8.30412 9.38267 7.81079 8.76533 7.45479C8.148 7.10012 7.45867 6.92146 6.69467 6.92146C5.91867 6.92146 5.22667 7.09612 4.616 7.44546C4.00533 7.79612 3.52533 8.28413 3.176 8.91479C2.82533 9.54279 2.65067 10.2575 2.65067 11.0588C2.65067 11.8601 2.82533 12.5748 3.176 13.2041C3.52533 13.8335 4.00533 14.3228 4.616 14.6721C5.22667 15.0215 5.91867 15.1975 6.69467 15.1975C7.45867 15.1975 8.148 15.0215 8.76533 14.6721ZM6.67733 17.5801C5.456 17.5801 4.336 17.2935 3.31867 16.7228C2.3 16.1495 1.49333 15.3655 0.896 14.3668C0.297333 13.3695 0 12.2668 0 11.0588C0 9.85212 0.297333 8.74946 0.896 7.75079C1.49333 6.75346 2.3 5.96813 3.31867 5.39613C4.336 4.82413 5.456 4.53746 6.67733 4.53746C7.89733 4.53746 9.01867 4.82413 10.044 5.39613C11.068 5.96813 11.8813 6.75346 12.4853 7.75079C13.0893 8.74946 13.392 9.85212 13.392 11.0588C13.392 12.2668 13.0893 13.3695 12.4853 14.3668C11.8813 15.3655 11.068 16.1495 10.044 16.7228C9.01867 17.2935 7.89733 17.5801 6.67733 17.5801Z" fill="#D32034"/>
<path d="M20.6599 15.1396C21.2332 15.1396 21.6785 14.9903 21.9959 14.6916C22.3132 14.3929 22.4719 13.9889 22.4719 13.4809C22.4719 12.9729 22.3132 12.5689 21.9959 12.2703C21.6785 11.9716 21.2332 11.8223 20.6599 11.8223H18.1412V15.1396H20.6599ZM15.5665 4.76761H23.9612V7.09294H18.1412V9.70494H20.7945C21.6212 9.70494 22.3545 9.86094 22.9972 10.1716C23.6385 10.4836 24.1385 10.9223 24.4945 11.4876C24.8519 12.0543 25.0279 12.7183 25.0279 13.4809C25.0279 14.2436 24.8519 14.9169 24.4945 15.5009C24.1385 16.0863 23.6385 16.5409 22.9972 16.8649C22.3545 17.1889 21.6212 17.3516 20.7945 17.3516H15.5665V4.76761Z" fill="#D32034"/>
<path d="M42.3306 17.3511H27.1266V4.76711H29.7013V15.0244H33.8426V4.76711H36.4173V15.0244H40.5573V4.76711H43.1333V15.0244H44.7919V20.0391H42.3306V17.3511Z" fill="#D32034"/>
<path d="M46.699 4.76712H55.171V7.09379H49.275V9.64845H53.6056V11.8405H49.275V15.0245H55.3976V17.3511H46.699V4.76712Z" fill="#D32034"/>
<path d="M62.3618 10.6588C62.9591 10.6588 63.4271 10.4908 63.7644 10.1534C64.1004 9.81743 64.2698 9.37476 64.2698 8.8281C64.2698 8.29476 64.0978 7.86276 63.7538 7.5321C63.4111 7.20143 62.9458 7.0361 62.3618 7.0361H60.2058V10.6588H62.3618ZM57.6298 4.7681H62.3618C63.2391 4.7681 64.0218 4.9361 64.7084 5.2721C65.3938 5.60943 65.9324 6.08543 66.3204 6.70276C66.7084 7.31876 66.9018 8.0281 66.9018 8.8281C66.9018 9.62943 66.7084 10.3374 66.3204 10.9548C65.9324 11.5708 65.3938 12.0508 64.7084 12.3934C64.0218 12.7374 63.2391 12.9081 62.3618 12.9081H60.2058V17.3521H57.6298V4.7681Z" fill="#D32034"/>
<path d="M77.0024 14.6721C77.6197 14.3228 78.1024 13.8335 78.4517 13.2041C78.8024 12.5748 78.9757 11.8601 78.9757 11.0588C78.9757 10.2708 78.8024 9.56146 78.4517 8.93346C78.1024 8.30412 77.6197 7.81079 77.0024 7.45479C76.3851 7.10012 75.6957 6.92146 74.9317 6.92146C74.1557 6.92146 73.4637 7.09612 72.8531 7.44546C72.2424 7.79612 71.7624 8.28413 71.4131 8.91479C71.0624 9.54279 70.8877 10.2575 70.8877 11.0588C70.8877 11.8601 71.0624 12.5748 71.4131 13.2041C71.7624 13.8335 72.2424 14.3228 72.8531 14.6721C73.4637 15.0215 74.1557 15.1975 74.9317 15.1975C75.6957 15.1975 76.3851 15.0215 77.0024 14.6721ZM74.9144 17.5801C73.6931 17.5801 72.5731 17.2935 71.5557 16.7228C70.5371 16.1495 69.7304 15.3655 69.1331 14.3668C68.5344 13.3695 68.2371 12.2668 68.2371 11.0588C68.2371 9.85212 68.5344 8.74946 69.1331 7.75079C69.7304 6.75346 70.5371 5.96813 71.5557 5.39613C72.5731 4.82413 73.6931 4.53746 74.9144 4.53746C76.1344 4.53746 77.2557 4.82413 78.2811 5.39613C79.3051 5.96813 80.1184 6.75346 80.7224 7.75079C81.3264 8.74946 81.6291 9.85212 81.6291 11.0588C81.6291 12.2668 81.3264 13.3695 80.7224 14.3668C80.1184 15.3655 79.3051 16.1495 78.2811 16.7228C77.2557 17.2935 76.1344 17.5801 74.9144 17.5801Z" fill="#D32034"/>
<path d="M86.389 16.7223C85.3637 16.1503 84.557 15.365 83.9664 14.3676C83.3744 13.369 83.0797 12.2663 83.0797 11.0583C83.0797 9.85164 83.377 8.74897 83.9744 7.7503C84.573 6.75297 85.3837 5.96897 86.4077 5.39564C87.4304 4.82364 88.5597 4.5383 89.7944 4.5383C90.989 4.5383 92.0744 4.8143 93.0464 5.36764C94.0197 5.91964 94.785 6.6863 95.345 7.66497L93.3997 9.0383C92.509 7.62764 91.3064 6.92097 89.7944 6.92097C89.0184 6.92097 88.321 7.09964 87.705 7.45564C87.0877 7.81164 86.605 8.30364 86.2544 8.93297C85.905 9.5623 85.7304 10.2783 85.7304 11.0783C85.7304 11.8796 85.905 12.5903 86.2544 13.2143C86.605 13.837 87.0877 14.3223 87.705 14.6716C88.321 15.0223 89.0184 15.197 89.7944 15.197C91.3064 15.197 92.509 14.4916 93.3997 13.081L95.345 14.453C94.7984 15.4316 94.0344 16.197 93.0557 16.7503C92.077 17.3036 90.9824 17.5796 89.7744 17.5796C88.541 17.5796 87.413 17.2943 86.389 16.7223Z" fill="#D32034"/>
<path d="M100.028 16.7223C99.0031 16.1503 98.1964 15.365 97.6058 14.3676C97.0138 13.369 96.7191 12.2663 96.7191 11.0583C96.7191 9.85164 97.0164 8.74897 97.6138 7.7503C98.2124 6.75297 99.0231 5.96897 100.047 5.39564C101.07 4.82364 102.199 4.5383 103.434 4.5383C104.628 4.5383 105.714 4.8143 106.686 5.36764C107.659 5.91964 108.424 6.6863 108.984 7.66497L107.039 9.0383C106.148 7.62764 104.946 6.92097 103.434 6.92097C102.658 6.92097 101.96 7.09964 101.344 7.45564C100.727 7.81164 100.244 8.30364 99.8938 8.93297C99.5444 9.5623 99.3698 10.2783 99.3698 11.0783C99.3698 11.8796 99.5444 12.5903 99.8938 13.2143C100.244 13.837 100.727 14.3223 101.344 14.6716C101.96 15.0223 102.658 15.197 103.434 15.197C104.946 15.197 106.148 14.4916 107.039 13.081L108.984 14.453C108.438 15.4316 107.674 16.197 106.695 16.7503C105.716 17.3036 104.622 17.5796 103.414 17.5796C102.18 17.5796 101.052 17.2943 100.028 16.7223Z" fill="#D32034"/>
<path d="M121.976 4.53781V17.3511H119.4V9.55248L112.018 17.5791H111.178V4.76715H113.754V12.4885L121.118 4.53781H121.976Z" fill="#D32034"/>
<path d="M128.234 2.70812C127.623 2.08546 127.318 1.27746 127.318 0.286791V0.00012439H129.378V0.362791C129.378 0.820125 129.486 1.17612 129.703 1.43079C129.919 1.68412 130.223 1.81212 130.618 1.81212C131.013 1.81212 131.318 1.68412 131.534 1.43079C131.75 1.17612 131.858 0.820125 131.858 0.362791V0.00012439H133.899V0.286791C133.899 1.27746 133.595 2.08546 132.985 2.70812C132.373 3.33079 131.585 3.64279 130.618 3.64279C129.639 3.64279 128.845 3.33079 128.234 2.70812ZM135.654 4.53879V17.3508H133.079V9.55346L125.697 17.5801H124.857V4.76679H127.431V12.4895L134.797 4.53879H135.654Z" fill="#D32034"/>
<path d="M141.121 16.7223C140.096 16.1503 139.289 15.365 138.698 14.3676C138.106 13.369 137.812 12.2663 137.812 11.0583C137.812 9.85164 138.109 8.74897 138.706 7.7503C139.305 6.75297 140.116 5.96897 141.14 5.39564C142.162 4.82364 143.292 4.5383 144.526 4.5383C145.721 4.5383 146.806 4.8143 147.778 5.36764C148.752 5.91964 149.517 6.6863 150.077 7.66497L148.132 9.0383C147.241 7.62764 146.038 6.92097 144.526 6.92097C143.75 6.92097 143.053 7.09964 142.437 7.45564C141.82 7.81164 141.337 8.30364 140.986 8.93297C140.637 9.5623 140.462 10.2783 140.462 11.0783C140.462 11.8796 140.637 12.5903 140.986 13.2143C141.337 13.837 141.82 14.3223 142.437 14.6716C143.053 15.0223 143.75 15.197 144.526 15.197C146.038 15.197 147.241 14.4916 148.132 13.081L150.077 14.453C149.53 15.4316 148.766 16.197 147.788 16.7503C146.809 17.3036 145.714 17.5796 144.506 17.5796C143.273 17.5796 142.145 17.2943 141.121 16.7223Z" fill="#D32034"/>
<path d="M160.245 17.3511L154.845 10.7925V17.3511H152.27V4.76712H154.845V10.6018L159.653 4.76712H162.723L157.898 10.6965L163.354 17.3511H160.245Z" fill="#D32034"/>
<path d="M169.897 9.34263L168.218 13.5946H171.576L169.897 9.34263ZM172.473 15.7106H167.321L166.616 17.3506H163.849L169.478 4.5373H170.336L175.944 17.3506H173.178L172.473 15.7106Z" fill="#D32034"/>
<path d="M184.243 7.03596H182.298C181.661 7.03596 181.147 7.2133 180.753 7.5693C180.358 7.9253 180.161 8.39596 180.161 8.97996C180.161 9.5653 180.358 10.0333 180.753 10.3826C181.147 10.732 181.661 10.9066 182.298 10.9066H184.243V7.03596ZM186.819 4.76663V17.3506H184.243V13.1746H182.603L179.665 17.3506H176.898L180.122 12.7373C179.322 12.3933 178.689 11.892 178.225 11.2306C177.761 10.5693 177.529 9.8133 177.529 8.9613C177.529 8.13596 177.731 7.40396 178.139 6.7693C178.546 6.1333 179.114 5.6413 179.846 5.29063C180.578 4.9413 181.421 4.76663 182.374 4.76663H186.819Z" fill="#D32034"/>
<path d="M41.6926 37.5525C42.3099 37.2032 42.7926 36.7138 43.1419 36.0845C43.4926 35.4552 43.6659 34.7405 43.6659 33.9392C43.6659 33.1512 43.4926 32.4418 43.1419 31.8138C42.7926 31.1845 42.3099 30.6912 41.6926 30.3352C41.0752 29.9805 40.3859 29.8018 39.6219 29.8018C38.8459 29.8018 38.1539 29.9765 37.5432 30.3258C36.9326 30.6765 36.4526 31.1645 36.1032 31.7952C35.7526 32.4232 35.5779 33.1378 35.5779 33.9392C35.5779 34.7405 35.7526 35.4552 36.1032 36.0845C36.4526 36.7138 36.9326 37.2032 37.5432 37.5525C38.1539 37.9018 38.8459 38.0778 39.6219 38.0778C40.3859 38.0778 41.0752 37.9018 41.6926 37.5525ZM39.6046 40.4605C38.3832 40.4605 37.2632 40.1738 36.2459 39.6032C35.2272 39.0298 34.4206 38.2458 33.8232 37.2472C33.2246 36.2498 32.9272 35.1472 32.9272 33.9392C32.9272 32.7325 33.2246 31.6298 33.8232 30.6312C34.4206 29.6338 35.2272 28.8485 36.2459 28.2765C37.2632 27.7045 38.3832 27.4178 39.6046 27.4178C40.8246 27.4178 41.9459 27.7045 42.9712 28.2765C43.9952 28.8485 44.8086 29.6338 45.4126 30.6312C46.0166 31.6298 46.3192 32.7325 46.3192 33.9392C46.3192 35.1472 46.0166 36.2498 45.4126 37.2472C44.8086 38.2458 43.9952 39.0298 42.9712 39.6032C41.9459 40.1738 40.8246 40.4605 39.6046 40.4605Z" fill="#D32034"/>
<path d="M53.5871 38.02C54.1604 38.02 54.6058 37.8706 54.9231 37.572C55.2404 37.2733 55.3991 36.8693 55.3991 36.3613C55.3991 35.8533 55.2404 35.4493 54.9231 35.1506C54.6058 34.852 54.1604 34.7026 53.5871 34.7026H51.0684V38.02H53.5871ZM48.4938 27.648H56.8884V29.9733H51.0684V32.5853H53.7218C54.5484 32.5853 55.2818 32.7413 55.9244 33.052C56.5658 33.364 57.0658 33.8026 57.4218 34.368C57.7791 34.9346 57.9551 35.5986 57.9551 36.3613C57.9551 37.124 57.7791 37.7973 57.4218 38.3813C57.0658 38.9666 56.5658 39.4213 55.9244 39.7453C55.2818 40.0693 54.5484 40.232 53.7218 40.232H48.4938V27.648Z" fill="#D32034"/>
<path d="M75.2576 40.2315H60.0536V27.6475H62.6283V37.9048H66.7696V27.6475H69.3443V37.9048H73.4843V27.6475H76.0603V37.9048H77.7189V42.9195H75.2576V40.2315Z" fill="#D32034"/>
<path d="M79.6261 27.6475H88.0981V29.9742H82.2021V32.5288H86.5328V34.7208H82.2021V37.9048H88.3248V40.2315H79.6261V27.6475Z" fill="#D32034"/>
<path d="M92.7615 39.6027C91.7361 39.0307 90.9295 38.2453 90.3388 37.248C89.7468 36.2493 89.4521 35.1467 89.4521 33.9387C89.4521 32.732 89.7495 31.6293 90.3468 30.6307C90.9455 29.6333 91.7561 28.8493 92.7801 28.276C93.8028 27.704 94.9321 27.4187 96.1668 27.4187C97.3615 27.4187 98.4468 27.6947 99.4188 28.248C100.392 28.8 101.157 29.5667 101.717 30.5453L99.7721 31.9187C98.8815 30.508 97.6788 29.8013 96.1668 29.8013C95.3908 29.8013 94.6935 29.98 94.0775 30.336C93.4601 30.692 92.9775 31.184 92.6268 31.8133C92.2775 32.4427 92.1028 33.1587 92.1028 33.9587C92.1028 34.76 92.2775 35.4707 92.6268 36.0947C92.9775 36.7173 93.4601 37.2027 94.0775 37.552C94.6935 37.9027 95.3908 38.0773 96.1668 38.0773C97.6788 38.0773 98.8815 37.372 99.7721 35.9613L101.717 37.3333C101.171 38.312 100.407 39.0773 99.4281 39.6307C98.4495 40.184 97.3548 40.46 96.1468 40.46C94.9135 40.46 93.7855 40.1747 92.7615 39.6027Z" fill="#D32034"/>
<path d="M106.752 29.9737H102.727V27.647H113.372V29.9737H109.328V40.231H106.752V29.9737Z" fill="#D32034"/>
<path d="M121.804 37.6C122.122 37.3213 122.282 36.9333 122.282 36.4373C122.282 35.9546 122.122 35.5693 121.804 35.284C121.487 34.9973 121.048 34.8546 120.488 34.8546H117.551V38.02H120.488C121.048 38.02 121.487 37.88 121.804 37.6ZM117.551 29.8586V32.7386H119.326C119.846 32.7386 120.25 32.608 120.536 32.348C120.823 32.0866 120.966 31.7346 120.966 31.2893C120.966 30.844 120.823 30.4946 120.536 30.24C120.25 29.9866 119.846 29.8586 119.326 29.8586H117.551ZM124.227 34.5973C124.622 35.1253 124.819 35.7693 124.819 36.532C124.819 37.244 124.644 37.8826 124.294 38.4493C123.944 39.0146 123.455 39.4533 122.826 39.764C122.196 40.076 121.48 40.232 120.679 40.232H115.07V27.648H119.535C120.298 27.648 120.984 27.796 121.595 28.096C122.206 28.3946 122.679 28.808 123.016 29.3346C123.352 29.8626 123.522 30.4693 123.522 31.156C123.522 32.0706 123.21 32.8266 122.587 33.4253C123.286 33.6786 123.832 34.0706 124.227 34.5973Z" fill="#D32034"/>
<path d="M126.916 27.6475H135.388V29.9742H129.492V32.5288H133.823V34.7208H129.492V37.9048H135.615V40.2315H126.916V27.6475Z" fill="#D32034"/>
<path d="M137.847 27.6475H140.423V32.4715H145.993V27.6475H148.569V40.2315H145.993V34.7968H140.423V40.2315H137.847V27.6475Z" fill="#D32034"/>
<path d="M151.45 27.6475H154.026V32.4715H159.596V27.6475H162.172V40.2315H159.596V34.7968H154.026V40.2315H151.45V27.6475Z" fill="#D32034"/>
<path d="M169.898 32.223L168.22 36.475H171.577L169.898 32.223ZM172.474 38.591H167.322L166.617 40.231H163.85L169.48 27.4177H170.337L175.945 40.231H173.18L172.474 38.591Z" fill="#D32034"/>
<path d="M184.243 29.9163H182.298C181.661 29.9163 181.147 30.0937 180.753 30.4497C180.358 30.8057 180.161 31.2763 180.161 31.8603C180.161 32.4457 180.358 32.9137 180.753 33.263C181.147 33.6123 181.661 33.787 182.298 33.787H184.243V29.9163ZM186.819 27.647V40.231H184.243V36.055H182.603L179.665 40.231H176.898L180.122 35.6177C179.322 35.2737 178.689 34.7723 178.225 34.111C177.761 33.4497 177.529 32.6937 177.529 31.8417C177.529 31.0163 177.731 30.2843 178.139 29.6497C178.546 29.0137 179.114 28.5217 179.846 28.171C180.578 27.8217 181.421 27.647 182.374 27.647H186.819Z" fill="#D32034"/>
<path d="M60.2341 60.4334C60.8514 60.084 61.3341 59.5947 61.6834 58.9654C62.0341 58.336 62.2074 57.6214 62.2074 56.82C62.2074 56.032 62.0341 55.3227 61.6834 54.6947C61.3341 54.0654 60.8514 53.572 60.2341 53.216C59.6167 52.8614 58.9274 52.6827 58.1634 52.6827C57.3874 52.6827 56.6954 52.8574 56.0847 53.2067C55.4741 53.5574 54.9941 54.0454 54.6447 54.676C54.2941 55.304 54.1194 56.0187 54.1194 56.82C54.1194 57.6214 54.2941 58.336 54.6447 58.9654C54.9941 59.5947 55.4741 60.084 56.0847 60.4334C56.6954 60.7827 57.3874 60.9587 58.1634 60.9587C58.9274 60.9587 59.6167 60.7827 60.2341 60.4334ZM58.1461 63.3414C56.9247 63.3414 55.8047 63.0547 54.7874 62.484C53.7687 61.9107 52.9621 61.1267 52.3647 60.128C51.7661 59.1307 51.4688 58.028 51.4688 56.82C51.4688 55.6134 51.7661 54.5107 52.3647 53.512C52.9621 52.5147 53.7687 51.7294 54.7874 51.1574C55.8047 50.5854 56.9247 50.2987 58.1461 50.2987C59.3661 50.2987 60.4874 50.5854 61.5127 51.1574C62.5367 51.7294 63.3501 52.5147 63.9541 53.512C64.5581 54.5107 64.8607 55.6134 64.8607 56.82C64.8607 58.028 64.5581 59.1307 63.9541 60.128C63.3501 61.1267 62.5367 61.9107 61.5127 62.484C60.4874 63.0547 59.3661 63.3414 58.1461 63.3414Z" fill="#D32034"/>
<path d="M71.7667 56.4195C72.364 56.4195 72.832 56.2515 73.1693 55.9142C73.5053 55.5782 73.6747 55.1355 73.6747 54.5888C73.6747 54.0555 73.5027 53.6235 73.1587 53.2928C72.816 52.9622 72.3507 52.7968 71.7667 52.7968H69.6107V56.4195H71.7667ZM67.0347 50.5288H71.7667C72.644 50.5288 73.4267 50.6968 74.1133 51.0328C74.7987 51.3702 75.3373 51.8462 75.7253 52.4635C76.1133 53.0795 76.3067 53.7888 76.3067 54.5888C76.3067 55.3902 76.1133 56.0982 75.7253 56.7155C75.3373 57.3315 74.7987 57.8115 74.1133 58.1542C73.4267 58.4982 72.644 58.6688 71.7667 58.6688H69.6107V63.1128H67.0347V50.5288Z" fill="#D32034"/>
<path d="M78.3656 50.5284H86.4549V52.855H80.9416V63.1124H78.3656V50.5284Z" fill="#D32034"/>
<path d="M91.3006 55.1039L89.6219 59.3559H92.9792L91.3006 55.1039ZM93.8766 61.4719H88.7246L88.0192 63.1119H85.2526L90.8819 50.2985H91.7392L97.3472 63.1119H94.5819L93.8766 61.4719Z" fill="#D32034"/>
<path d="M99.0636 50.5284H101.64V55.3524H107.209V50.5284H109.785V63.1124H107.209V57.6777H101.64V63.1124H99.0636V50.5284Z" fill="#D32034"/>
<path d="M123.465 50.299V63.1124H120.889V55.3137L113.506 63.3404H112.666V50.5284H115.242V58.2497L122.606 50.299H123.465Z" fill="#D32034"/>
<path d="M134.91 57.659C135.227 58.155 135.386 58.7337 135.386 59.3937C135.386 60.183 135.19 60.8724 134.795 61.463C134.401 62.0537 133.845 62.515 133.126 62.8457C132.407 63.175 131.565 63.3404 130.599 63.3404C129.479 63.3404 128.487 63.0804 127.622 62.559C126.758 62.0377 126.097 61.3257 125.638 60.4244L127.433 59.127C128.246 60.347 129.294 60.9577 130.579 60.9577C131.227 60.9577 131.769 60.8044 132.201 60.5004C132.633 60.195 132.85 59.7817 132.85 59.2604C132.85 58.803 132.678 58.435 132.334 58.155C131.991 57.875 131.482 57.735 130.809 57.735H129.149V55.619H130.617C131.153 55.619 131.565 55.4857 131.858 55.2177C132.15 54.951 132.297 54.6017 132.297 54.1697C132.297 53.7244 132.141 53.3657 131.829 53.0924C131.517 52.819 131.082 52.683 130.522 52.683C129.415 52.683 128.545 53.2297 127.909 54.323L126.115 53.0444C126.549 52.1804 127.153 51.507 127.929 51.023C128.703 50.5404 129.613 50.299 130.657 50.299C131.939 50.299 132.957 50.627 133.709 51.2804C134.458 51.9364 134.833 52.8284 134.833 53.9604C134.833 54.4684 134.722 54.939 134.499 55.371C134.277 55.803 133.969 56.179 133.574 56.495C134.147 56.775 134.593 57.163 134.91 57.659Z" fill="#D32034"/>
<path d="M142.217 55.1039L140.539 59.3559H143.896L142.217 55.1039ZM144.793 61.4719H139.641L138.936 63.1119H136.169L141.799 50.2985H142.656L148.264 63.1119H145.499L144.793 61.4719Z" fill="#D32034"/>
<path d="M159.614 63.1123H149.98V50.5283H152.556V60.7857H157.821V50.5283H160.397V60.7857H162.076V65.8003H159.614V63.1123Z" fill="#D32034"/>
<path d="M174.781 50.299V63.1124H172.205V55.3137L164.822 63.3404H163.982V50.5284H166.558V58.2497L173.922 50.299H174.781Z" fill="#D32034"/>
<path d="M184.243 52.7972H182.298C181.661 52.7972 181.147 52.9745 180.753 53.3305C180.358 53.6865 180.161 54.1572 180.161 54.7412C180.161 55.3265 180.358 55.7945 180.753 56.1439C181.147 56.4932 181.661 56.6679 182.298 56.6679H184.243V52.7972ZM186.819 50.5279V63.1119H184.243V58.9359H182.603L179.665 63.1119H176.898L180.122 58.4985C179.322 58.1545 178.689 57.6532 178.225 56.9919C177.761 56.3305 177.529 55.5745 177.529 54.7225C177.529 53.8972 177.731 53.1652 178.139 52.5305C178.546 51.8945 179.114 51.4025 179.846 51.0519C180.578 50.7025 181.421 50.5279 182.374 50.5279H186.819Z" fill="#D32034"/>
</svg>
